PathFileType	4	(X/Y/Z)	C:\Users\WrightLab\Desktop\Jo\P5V120.trc
DataRate	CameraRate	NumFrames	NumMarkers	Units	OrigDataRate	OrigDataStartFrame	OrigNumFrames
100.00	100.00	       19	19	mm	100.00	552	       630
Frame#	Time	Headset_Front			Headset_Back			Headset_Left			Headset_Right			Left_Shoulder			Right_Shoulder			Sternum			C7			Left Elbow			Right Elbow			Left Wrist			Right Wrist			Left ASIS			Right ASIS			S2			Left Knee			Right Knee			Left Ankle			Right Ankle			
		X1	Y1	Z1	X2	Y2	Z2	X3	Y3	Z3	X4	Y4	Z4	X5	Y5	Z5	X6	Y6	Z6	X7	Y7	Z7	X8	Y8	Z8	X9	Y9	Z9	X10	Y10	Z10	X11	Y11	Z11	X12	Y12	Z12	X13	Y13	Z13	X14	Y14	Z14	X15	Y15	Z15	X16	Y16	Z16	X17	Y17	Z17	X18	Y18	Z18	X19	Y19	Z19	

552	5.510				-150.52989	1519.78992	-1105.82202				-287.65924	1581.82251	-811.46533	-329.26825	937.83521	-975.61407	-373.46274	1452.18933	-1041.76001	-201.82443	1312.74011	-911.37903							-440.38037	1201.62878	-1170.38037	82.16984	1055.54871	-814.55225	-456.15140	1039.45093	-994.44806	-54.60213	925.77161	-882.20868							25.47981	508.67123	-844.59326	-314.96484	476.04822	-1086.19983	193.84169	148.14546	-986.34613	-265.44855	73.47649	-1143.48645	
553	5.520				-155.24635	1519.67517	-1108.76721				-286.72409	1581.48767	-811.93793	-329.62250	937.81067	-974.05542	-377.00891	1451.71899	-1040.75000	-202.03401	1312.55847	-912.76776							-445.70792	1201.28870	-1168.63879	82.80815	1055.96936	-821.31165	-459.08060	1039.07410	-992.67822	-51.93225	925.57214	-885.95789							30.33302	507.92981	-852.59784	-318.32434	475.72015	-1086.32617	187.48079	146.57990	-1000.56012	-265.99680	73.01250	-1143.49854	
554	5.530	-177.15147	1498.76599	-735.76733	-159.93837	1519.28625	-1111.90796				-285.84583	1580.96118	-812.72064	-329.56506	937.56897	-973.74469				-202.27740	1312.39282	-914.70245							-450.73254	1200.72339	-1166.61963	82.71565	1056.71301	-827.13971	-461.60312	1038.75244	-991.21533	-51.06104	925.19263	-891.42969							33.62997	506.67310	-859.74664	-320.73990	475.42429	-1086.02844	181.04405	144.29683	-1013.26086	-266.19940	72.69286	-1144.01904	
555	5.540				-164.34373	1519.26123	-1114.66724				-284.78070	1580.53845	-813.13116	-329.31516	937.53711	-972.57092	-383.17117	1450.76465	-1037.12756	-201.56398	1312.40955	-915.64233							-455.68240	1200.33569	-1164.44446	84.48380	1057.85522	-833.33527	-464.20969	1038.68726	-988.67328	-48.45708	924.80981	-895.46246	-93.78266	974.26495	-1214.34827	137.92546	1210.60034	-997.27808	37.23681	505.66391	-869.17261	-323.24683	475.36353	-1087.02747	174.00705	142.65768	-1026.19031	-266.61990	72.22067	-1144.26465	
556	5.550										-283.59842	1580.19775	-814.12512	-328.51440	937.09424	-971.12000				-201.95049	1312.68359	-918.20953							-459.77374	1200.44958	-1162.20190	85.73355	1058.30042	-838.83264	-465.82565	1038.19788	-986.41083	-47.22530	924.78790	-900.09454	-98.74175	975.13660	-1217.41357	135.76794	1210.46021	-1004.41479	41.67445	505.54102	-878.87262	-325.67230	474.62302	-1085.69470	167.68069	140.12617	-1038.22437	-266.61990	72.22067	-1144.26465	
557	5.560				-172.59970	1519.11304	-1119.86243				-282.39337	1580.00720	-815.12457	-327.74475	937.76727	-967.64105				-201.16949	1312.36621	-919.22034							-464.36285	1200.60742	-1159.95129	85.74886	1057.99988	-846.80011	-466.92062	1038.20349	-984.51031	-45.33334	924.96051	-904.88306	-103.75385	975.00092	-1219.93896	134.35646	1209.46558	-1011.32690	44.09956	504.16476	-888.59302	-329.05368	472.85086	-1084.12524	161.52216	139.03987	-1050.47607	-267.00159	71.90881	-1144.17529	
558	5.570				-176.26974	1519.23059	-1121.54309				-281.15485	1579.42407	-815.39734	-326.37131	938.07434	-964.16901				-199.70483	1312.61377	-921.14117							-468.14859	1199.73730	-1157.03540	87.20123	1059.67908	-852.80200	-468.29956	1037.35303	-982.07202	-43.42355	924.94165	-909.55219	-108.93937	975.56653	-1223.54297	133.47665	1211.44397	-1019.78082	47.39822	503.76505	-897.88556	-333.24634	472.76913	-1083.72876	153.67990	133.86850	-1066.55457	-267.44220	71.60428	-1143.58716	
559	5.580				-179.99272	1519.48303	-1124.21594				-279.70023	1579.25488	-816.59064	-325.55435	938.88806	-960.49225				-199.89507	1312.56824	-923.26447							-471.11221	1199.62646	-1154.12927	87.71630	1060.37451	-858.80310	-468.80527	1036.22473	-979.78192	-41.64417	925.43805	-914.17139	-114.28426	975.86884	-1227.37988	132.88835	1211.72632	-1026.98450	50.18984	503.28711	-908.14355	-334.58063	472.73706	-1084.00476	146.30540	133.83412	-1072.72571	-267.72675	71.35211	-1143.69202	
560	5.590				-183.37413	1519.85339	-1126.30261				-278.26563	1578.77649	-817.16595	-324.12039	937.03748	-961.81647				-199.07320	1312.50964	-924.53259							-475.05725	1199.47229	-1151.31653	88.44367	1060.30725	-864.60504	-470.35858	1036.18604	-977.33997	-39.49024	926.39484	-918.72144	-119.35273	976.29333	-1231.02856	131.05096	1211.76709	-1032.66016	53.21135	502.81348	-919.14087	-335.16376	472.77942	-1082.24023	139.45007	131.95822	-1082.28479	-268.09363	71.18781	-1143.20203	
561	5.600				-186.57343	1520.18823	-1128.07568				-276.72183	1578.77539	-818.19836	-321.85440	936.13727	-964.71265				-198.31612	1312.71545	-926.86578							-477.80002	1199.39880	-1148.57886	89.22782	1061.30566	-870.81866	-471.25562	1035.38159	-974.79578	-39.09039	926.49866	-922.87195	-124.15217	976.85132	-1234.63501	130.21666	1213.72375	-1039.63220	54.03007	502.04672	-928.86896	-337.81900	471.80035	-1081.95264	132.33821	128.77956	-1091.86475	-268.69394	70.71225	-1142.93079	
562	5.610				-189.73706	1520.24011	-1129.77966				-275.11752	1578.62744	-818.64502	-320.13354	936.52887	-961.86505				-196.65236	1312.63232	-927.73938							-480.49612	1199.45435	-1145.69824	89.60147	1062.20142	-876.13202	-471.50754	1035.41663	-972.50262	-37.50785	926.57776	-927.44086	-128.59825	977.31500	-1237.33008	128.55969	1213.95789	-1045.75171	55.18739	501.49475	-938.44690	-339.90149	471.31763	-1079.79163	124.69020	127.17870	-1100.50659	-268.69394	70.71225	-1142.93079	
563	5.620				-192.70752	1520.45886	-1131.52930				-273.60211	1578.95056	-819.54474	-318.93552	937.31555	-956.83777				-194.72835	1312.63391	-930.27277							-483.30710	1199.35046	-1142.92004	91.34978	1062.74500	-882.43951	-471.14395	1034.03125	-969.07166	-36.15261	927.18903	-931.35345	-132.73003	977.73389	-1239.42847	127.18098	1214.13708	-1051.50732	56.79311	501.65491	-948.39862	-343.30597	471.80875	-1079.32922	117.82185	123.17074	-1109.16333	-268.69394	70.71225	-1142.93079	
564	5.630				-195.36156	1520.76477	-1132.54590				-271.96890	1579.30188	-819.80109	-317.21024	937.60791	-957.75299				-193.42596	1312.55603	-931.44012							-485.14291	1199.38477	-1140.07080	92.59745	1063.58508	-887.47070	-470.90186	1033.62219	-967.07098	-34.42620	928.00372	-935.58905	-137.03957	978.45752	-1243.12061	126.01768	1215.94128	-1058.56348	57.84646	501.64645	-957.43311	-344.30322	471.68100	-1076.84045	110.75816	121.09856	-1115.16284	-268.69394	70.71225	-1142.93079	
565	5.640										-270.35962	1579.80237	-820.62988	-315.01395	936.99683	-962.93335				-193.73015	1313.69324	-933.32599							-487.13232	1199.32324	-1136.18115	93.14426	1064.04456	-892.34265	-470.26941	1031.50305	-964.44226	-33.78936	928.07867	-940.08691	-140.95876	979.05481	-1245.67810	124.66824	1216.06885	-1063.31702	57.78407	501.53229	-967.92126	-345.85425	471.57809	-1075.28796				-269.27777	71.10412	-1143.38208	
566	5.650				-200.36206	1521.58569	-1135.84985				-268.76242	1580.46899	-821.26746	-313.90366	937.58289	-962.11957				-192.99243	1313.97742	-934.99860							-488.74332	1199.32227	-1132.94470	94.07954	1064.31921	-898.64490	-470.15906	1032.07117	-962.66595	-33.26428	928.56720	-944.28027	-144.40054	979.14978	-1246.90442	123.78951	1216.02832	-1066.17273	57.26302	501.45056	-976.79913	-349.14645	472.58807	-1073.29810				-269.27777	71.10412	-1143.38208	
567	5.660				-202.51984	1521.89856	-1137.07849				-267.31534	1581.15308	-821.48212	-312.53839	938.58478	-959.49408				-189.87457	1314.20459	-935.71259							-490.33887	1199.29700	-1129.97522	94.94389	1065.94629	-903.86786	-469.99658	1032.38391	-959.85028	-31.92806	929.10248	-948.47656	-147.81862	980.05792	-1249.69946	122.33363	1217.88867	-1074.94617	57.38029	501.45270	-984.95300	-350.27737	471.60956	-1071.53259	87.16605	111.28129	-1140.59998	-269.58963	71.18886	-1142.74634	
568	5.670				-204.56456	1522.09070	-1138.28931				-266.03738	1581.94128	-822.76660	-310.56372	939.52563	-957.17456				-189.83458	1314.56055	-937.72974							-491.71326	1199.17957	-1126.86511	95.43979	1066.55542	-908.96722	-468.88580	1031.73547	-958.43213	-30.71791	929.65845	-953.21143	-150.68887	980.60413	-1251.28699	121.79967	1217.20703	-1077.72180	56.33841	501.16742	-993.47235	-352.70544	471.55054	-1068.33752				-269.58963	71.18886	-1142.74634	
569	5.680				-206.40118	1522.24243	-1139.32446				-264.78036	1582.36487	-823.71716	-308.41913	939.08362	-959.60193				-188.71608	1315.13269	-938.89655							-492.79810	1198.85645	-1124.11670	96.60626	1067.23267	-913.77637	-467.21487	1030.93799	-955.15332	-30.48616	929.93835	-956.23486	-153.60507	980.87183	-1253.48877	120.89873	1217.78125	-1083.65137	55.73841	501.24243	-1002.00256	-353.91339	471.77545	-1065.15039				-269.58963	71.18886	-1142.74634	
570	5.690	375.51779	933.91180	851.05756	-208.17882	1522.28101	-1140.61401							-307.92712	938.75568	-959.60858				-186.61592	1314.36401	-940.74115							-493.47937	1198.81934	-1121.37219	96.75303	1067.16003	-918.01685	-465.60342	1031.00720	-953.04779	-29.49465	930.14917	-959.18628	-156.05759	980.81433	-1254.88013	120.60426	1217.20215	-1086.11646	54.68554	501.41321	-1010.14270	-356.47620	472.01746	-1062.87463				-269.58963	71.18886	-1142.74634	
